<svg xmlns="http://www.w3.org/2000/svg" viewBox="0 0 128 128">
  <defs>
    <linearGradient id="a" x1="50%" x2="50%" y1="100%" y2="0%">
      <stop offset="0%" stop-color="#9FFF9B"/>
      <stop offset="91.5%" stop-color="#61E7B5"/>
      <stop offset="100%" stop-color="#1DE1B7"/>
    </linearGradient>
    <linearGradient id="b" x1="50%" x2="50%" y1="0%" y2="100%">
      <stop offset="0%" stop-color="#E0FFF0"/>
      <stop offset="2.94%" stop-color="#EDFFF6"/>
      <stop offset="22.74%" stop-color="#C5FFE0"/>
      <stop offset="82.53%" stop-color="#BEFFDC"/>
      <stop offset="100%" stop-color="#CFFFE5"/>
    </linearGradient>
  </defs>
  <g fill="none" fill-rule="nonzero">
    <path fill="#86F5A6" fill-opacity=".4" d="M67.03 70.04v12.8l14.8-2.7a1 1 0 0 0 .3-1.9l-15.1-8.2z"/>
    <path fill="url(#a)" d="M49.55 85.24a17.7 17.7 0 0 1-5.52-13.2v-13l3 12 11.9-2a1.5 1.5 0 0 0 1.1-2.5l-28.3-29.7a1 1 0 0 0-1.7.7v34.5c0 14.3 8 24.3 24.1 30a1.01 1.01 0 0 1-.3 2h-33a15 15 0 0 1-15-13.4L0 14.98A14 14 0 0 1 14 1l52.03.04c7.73 0 15 6.27 15 14v58a17.4 17.4 0 0 1-18 17 17.7 17.7 0 0 1-13.48-4.81z" transform="translate(23 11)"/>
    <path fill="url(#b)" d="M40 22.03c-7.52 0-13.94-.32-18.15-.85-3.47-.42-6.16-3.64-6.63-7.11-.43-1.46-.88-3.3-1.36-5.5-.72-3.3-3.4-5.63-7.79-5.06C7.73 2.2 10.47.96 14.58 1c3.88.04 14.84.02 25.47 0 10.6.02 21.54.04 25.41 0 4.12-.04 6.86 1.2 8.51 2.51-4.39-.57-7.06 1.76-7.78 5.07-.48 2.2-.94 4.03-1.36 5.49-.47 3.47-3.16 6.69-6.64 7.11-4.22.53-10.65.85-18.19.85z" transform="translate(23 11)"/>
  </g>
</svg>
